<svg width="11" height="10" viewBox="0 0 11 10" fill="none" xmlns="http://www.w3.org/2000/svg">
<path fill-rule="evenodd" clip-rule="evenodd" d="M1.66129 0.174754C1.31803 -0.0794336 0.821705 -0.0563256 0.506282 0.244078C0.164573 0.569515 0.164573 1.09715 0.506282 1.42259L4.26256 5L0.506282 8.57741L0.433492 8.65592C0.166595 8.98283 0.190858 9.45552 0.506282 9.75592C0.84799 10.0814 1.40201 10.0814 1.74372 9.75592L5.5 6.17851L9.25628 9.75592L9.33871 9.82525C9.68197 10.0794 10.1783 10.0563 10.4937 9.75592C10.8354 9.43048 10.8354 8.90285 10.4937 8.57741L6.73744 5L10.4937 1.42259L10.5665 1.34408C10.8334 1.01717 10.8091 0.544481 10.4937 0.244078C10.152 -0.0813592 9.59799 -0.0813592 9.25628 0.244078L5.5 3.82149L1.74372 0.244078L1.66129 0.174754Z" fill="#C9C9C9"/>
</svg>
