<svg width="24" height="24" viewBox="0 0 24 24" fill="none" xmlns="http://www.w3.org/2000/svg">
<path fill-rule="evenodd" clip-rule="evenodd" d="M6.6786 2.00454L6.63946 2.00196C5.21666 1.93618 3.32805 3.53713 2.60778 4.73203C1.81756 5.8024 1.8027 7.23039 2.47943 8.8504L2.58612 9.09482C4.30365 13.3027 10.7119 19.6688 14.9347 21.4256L15.1715 21.5311C16.665 22.1663 18.0372 22.1744 19.1596 21.4652L19.2877 21.3787L19.2494 21.4021C20.3745 20.7577 22.0497 18.825 21.9983 17.3703C21.9469 16.7359 21.6613 16.237 21.2248 15.7902C21.0818 15.6438 20.8914 15.4687 20.6716 15.2794L20.322 14.9865C20.2608 14.9365 20.1983 14.886 20.1348 14.8354L19.7442 14.5307C19.6779 14.4801 19.6111 14.4298 19.5441 14.3799L19.1428 14.0878C18.4783 13.6163 17.854 13.2361 17.5505 13.1725C16.8565 13.0286 16.3925 13.1551 15.6882 13.5406L15.4314 13.6857C15.0363 13.9123 14.942 13.9382 14.8261 13.8961C12.5921 12.9837 11.0155 11.4076 10.0876 9.1371C10.0738 9.09784 10.0735 9.05454 10.105 8.97145L10.1593 8.85035L10.2514 8.67733L10.3465 8.51034C10.8187 7.68964 10.9837 7.20643 10.827 6.45105C10.7825 6.23794 10.583 5.86835 10.3058 5.43797L10.0508 5.05642C10.0058 4.99109 9.95956 4.92507 9.91244 4.85866L9.62054 4.45755C9.57066 4.39063 9.52031 4.32387 9.46972 4.25755L9.16511 3.86702C9.11446 3.80354 9.06401 3.74105 9.014 3.67984L8.72093 3.33001L8.44902 3.02407C8.36311 2.93089 8.28253 2.84726 8.20906 2.7754C7.76278 2.33945 7.26436 2.05471 6.6786 2.00454ZM6.48456 4.00349L6.52469 4.00069L6.50795 3.99725C6.55614 4.00138 6.6665 4.06442 6.81103 4.20561L6.96976 4.37209L7.1627 4.59206L7.38028 4.85249L7.73184 5.2905L8.08488 5.74625L8.50197 6.30556L8.66594 6.53517L8.78743 6.71405C8.83595 6.78864 8.86494 6.83932 8.869 6.85876C8.88363 6.92928 8.8746 7.00106 8.81339 7.13696L8.73373 7.29657L8.57919 7.57159C8.08208 8.43784 7.92067 9.0241 8.22156 9.85565C9.3674 12.6616 11.3388 14.6324 14.1071 15.762C14.9126 16.0551 15.4764 15.9372 16.2452 15.5217L16.7234 15.2545C16.9559 15.1319 17.0497 15.1112 17.1424 15.1304L17.1718 15.1426L17.2867 15.212L17.4654 15.3335L17.8248 15.5925L18.4056 16.0306L19.007 16.5043L19.4085 16.8367L19.6281 17.0294C19.6931 17.0884 19.7492 17.1417 19.7941 17.1877C19.9354 17.3324 19.9986 17.4428 20.0024 17.4881C20.0167 17.9253 18.9331 19.2007 18.3523 19.6047L18.17 19.7214C17.6536 20.0913 16.94 20.108 15.9435 19.6858L15.7404 19.5955C13.9745 18.8604 11.7171 17.16 9.65834 15.1748L9.1023 14.6268C7.08536 12.5955 5.32981 10.3412 4.52578 8.54468L4.4221 8.3026C3.92812 7.21521 3.886 6.46701 4.20242 5.94194L4.27046 5.83986C4.44087 5.56511 4.89462 5.06309 5.3459 4.68054C5.82409 4.27518 6.25541 4.0364 6.48456 4.00349Z" fill="#8E8E8E"/>
<g opacity="0.5">
<path fill-rule="evenodd" clip-rule="evenodd" d="M14.1107 1.0062L13.994 1C13.4933 1.00246 13.063 1.3799 13.0063 1.88959C12.9453 2.4385 13.3408 2.93294 13.8897 2.99395C17.6309 3.40984 20.5858 6.36494 21.0064 10.1116C21.068 10.6605 21.5629 11.0554 22.1117 10.9938C22.6606 10.9322 23.0556 10.4374 22.9939 9.88852C22.4691 5.21361 18.7812 1.52539 14.1107 1.0062ZM14.1915 6.01855C13.6494 5.91289 13.1243 6.26668 13.0187 6.80876C12.913 7.35084 13.2668 7.87594 13.8089 7.9816C14.9271 8.19957 15.8007 9.07312 16.0187 10.1914C16.1243 10.7335 16.6494 11.0873 17.1915 10.9816C17.7336 10.8759 18.0874 10.3508 17.9817 9.80876C17.6079 7.89101 16.1093 6.39235 14.1915 6.01855Z" fill="#8E8E8E"/>
</g>
</svg>
