<svg width="114" height="102" viewBox="0 0 114 102" fill="none" xmlns="http://www.w3.org/2000/svg">
<path opacity="0.2" d="M113.509 54.3999C113.509 28.1111 92.1975 6.79982 65.9087 6.79983C39.6199 6.79983 18.3086 28.1111 18.3086 54.3999C18.3086 80.6887 39.6199 102 65.9087 102C92.1975 102 113.509 80.6887 113.509 54.3999Z" fill="#ABABAB"/>
<path d="M94.2324 35.7344H38.582V71.0341H94.2324V35.7344Z" fill="white"/>
<path d="M94.2308 35.7344C91.985 37.8881 89.6931 39.9496 87.4242 42.0687C85.1553 44.1879 82.8174 46.2034 80.514 48.2534C78.2106 50.3034 75.7114 52.5032 73.3043 54.6108L73.0855 54.8181L66.6705 60.3809L66.3595 60.6342L66.0486 60.3809L59.6451 54.8066L59.4147 54.6108C56.9962 52.4994 54.5891 50.3764 52.1936 48.2419C49.8901 46.2034 47.5867 44.1303 45.2833 42.0687C42.9799 40.0072 40.7341 37.8881 38.4883 35.7344C40.8723 37.5771 43.2218 39.512 45.5943 41.4008C47.9668 43.2896 50.3048 45.2475 52.6427 47.1593C55.2456 49.3245 57.8523 51.5166 60.4628 53.7355L66.3019 58.6994C68.2483 57.0409 70.1947 55.3709 72.1411 53.7355C74.7439 51.5243 77.3506 49.3322 79.9612 47.1593C82.2646 45.2167 84.6141 43.2972 87.0096 41.4008C89.4973 39.512 91.8467 37.5771 94.2308 35.7344Z" fill="#DBDBDB"/>
<path d="M60.6353 54.5898H60.5662L59.6909 55.3269C58.2973 56.4786 56.8692 57.6303 55.4065 58.782C53.6329 60.1295 51.8247 61.431 50.005 62.7094C48.1854 63.9878 46.3311 65.2316 44.4538 66.4294C42.5766 67.6271 40.6762 68.8134 38.6953 69.8845C40.3883 68.3988 42.1504 67.0283 43.9125 65.6808C45.6746 64.3333 47.5059 63.0318 49.3255 61.7419C51.1452 60.452 52.9995 59.2197 54.8768 58.0104C56.374 57.0545 57.8942 56.1101 59.4836 55.2233L60.5777 54.6129L60.6353 54.5898Z" fill="#DBDBDB"/>
<path d="M94.0923 69.9077C92.1344 68.8251 90.2226 67.6043 88.3338 66.4526C86.445 65.3009 84.6138 63.9995 82.771 62.7326C80.9283 61.4657 79.1432 60.1528 77.3696 58.8053C75.9184 57.6536 74.4903 56.5825 73.1082 55.3502L72.2214 54.6016H72.1523H72.2329L73.3271 55.2235C74.8819 56.1103 76.3906 57.0547 77.9339 58.0106C79.8112 59.1623 81.6424 60.4753 83.4736 61.7421C85.3048 63.009 87.113 64.3219 88.8866 65.681C90.6602 67.04 92.4108 68.422 94.0923 69.9077Z" fill="#DBDBDB"/>
<path d="M92.4293 43.6264C96.7801 41.2552 98.3849 35.806 96.0138 31.4552C93.6426 27.1044 88.1934 25.4996 83.8426 27.8707C79.4918 30.2419 77.887 35.6911 80.2582 40.0419C82.6293 44.3927 88.0785 45.9975 92.4293 43.6264Z" fill="#1A90D2"/>
<path d="M87.3144 36.5077L87.3144 32.0972C87.2994 31.9589 87.3137 31.819 87.3563 31.6867C87.399 31.5543 87.469 31.4324 87.5619 31.3289C87.6548 31.2254 87.7685 31.1427 87.8955 31.086C88.0225 31.0293 88.16 31.0001 88.299 31.0001C88.4381 31.0001 88.5756 31.0293 88.7026 31.086C88.8296 31.1427 88.9433 31.2254 89.0361 31.3289C89.129 31.4324 89.1991 31.5543 89.2418 31.6867C89.2844 31.819 89.2987 31.9589 89.2838 32.0972L89.2838 36.5077C89.2987 36.646 89.2844 36.7859 89.2418 36.9182C89.1991 37.0506 89.129 37.1725 89.0362 37.276C88.9433 37.3795 88.8296 37.4623 88.7026 37.5189C88.5756 37.5756 88.4381 37.6049 88.299 37.6049C88.16 37.6049 88.0225 37.5756 87.8955 37.5189C87.7685 37.4623 87.6548 37.3795 87.5619 37.276C87.4691 37.1725 87.399 37.0506 87.3563 36.9182C87.3137 36.7859 87.2994 36.646 87.3144 36.5077ZM88.3048 40.8612C88.1738 40.8612 88.044 40.8352 87.9231 40.7847C87.8022 40.7342 87.6925 40.6602 87.6004 40.567C87.5082 40.4738 87.4355 40.3633 87.3864 40.2418C87.3373 40.1203 87.3128 39.9902 87.3144 39.8592V39.5022C87.2994 39.3639 87.3137 39.2241 87.3563 39.0917C87.399 38.9593 87.4691 38.8374 87.5619 38.7339C87.6548 38.6305 87.7685 38.5477 87.8955 38.491C88.0225 38.4344 88.16 38.4051 88.299 38.4051C88.4381 38.4051 88.5756 38.4344 88.7026 38.491C88.8296 38.5477 88.9433 38.6305 89.0362 38.7339C89.129 38.8374 89.1991 38.9593 89.2418 39.0917C89.2844 39.2241 89.2987 39.3639 89.2838 39.5022V39.8592C89.287 39.9927 89.2629 40.1253 89.2129 40.2491C89.163 40.3729 89.0883 40.4852 88.9933 40.579C88.8984 40.6729 88.7853 40.7463 88.661 40.7948C88.5366 40.8434 88.4037 40.8659 88.2703 40.8612H88.3048Z" fill="white"/>
<path d="M48.7436 7.28047L45.4141 17.1429L52.7883 11.1108L81.3069 0L48.7436 7.28047Z" fill="#888888"/>
<path d="M53.9855 13.4508L45.4141 17.1429L52.807 11L53.9855 13.4508Z" fill="#888888"/>
<path d="M52.8086 11L81.3086 0L58.4064 23.5714L52.8086 11Z" fill="#A7A7A7"/>
<path d="M48.5541 7.5L36.3086 0L81.3086 0.0694953L48.5541 7.5Z" fill="#A7A7A7"/>
<path opacity="0.5" d="M48.8088 15C2.30878 34 -9.71088 76.4201 10.3088 85C16.9112 87.8296 21.6175 87.7317 29.3088 85" stroke="#888888" stroke-linecap="round" stroke-dasharray="4 4"/>
</svg>
