<svg width="24" height="24" viewBox="0 0 24 24" fill="none" xmlns="http://www.w3.org/2000/svg">
<rect width="24" height="24" rx="7" fill="#E9E9E9"/>
<mask id="mask0_6171_30633" style="mask-type:luminance" maskUnits="userSpaceOnUse" x="5" y="5" width="14" height="14">
<rect x="5.28125" y="5.28125" width="13.44" height="13.44" fill="white"/>
</mask>
<g mask="url(#mask0_6171_30633)">
<path fill-rule="evenodd" clip-rule="evenodd" d="M18.6954 7.83867C18.1914 8.05971 17.6577 8.20528 17.1114 8.27068C17.6861 7.92533 18.1164 7.38366 18.3229 6.74571C17.7798 7.06183 17.1881 7.28582 16.5718 7.4086C15.7989 6.585 14.6014 6.3168 13.551 6.73201C12.5006 7.14722 11.8102 8.16166 11.8093 9.29115C11.8093 9.50327 11.8331 9.71436 11.8804 9.92078C9.66481 9.81475 7.59905 8.77085 6.19949 7.05004C5.95246 7.46986 5.82359 7.94869 5.82652 8.43579C5.82568 9.35752 6.2856 10.2185 7.05207 10.7303C6.61447 10.7163 6.18654 10.598 5.80396 10.3851L5.80396 10.4192C5.80318 11.731 6.72673 12.8616 8.01218 13.1226C7.60803 13.2316 7.18446 13.248 6.77309 13.1705C7.1361 14.2931 8.17157 15.0615 9.35117 15.0838C8.37649 15.8487 7.17303 16.2639 5.93404 16.2627C5.71591 16.2622 5.49797 16.2496 5.28125 16.2248C6.5446 17.0328 8.01326 17.4615 9.51294 17.4598C14.5832 17.4598 17.3523 13.2622 17.3523 9.62764C17.3523 9.51051 17.3523 9.39244 17.3442 9.27484C17.8848 8.88603 18.3512 8.40333 18.7213 7.84972L18.6954 7.83867Z" fill="#6B6B6B"/>
</g>
</svg>
