<svg width="147" height="36" viewBox="0 0 147 36" fill="none" xmlns="http://www.w3.org/2000/svg">
<g clip-path="url(#clip0_6258_26584)">
<path fill-rule="evenodd" clip-rule="evenodd" d="M19.086 33.4766C19.0913 33.4702 19.0998 33.4673 19.1045 33.46L20.5326 31.1217L20.5417 34.4417L19.086 33.4766ZM17.2507 30.1788L20.2469 30.6476L18.9095 32.8708L17.2507 30.1788ZM13.6366 29.8654L16.6493 30.0953L18.4684 33.0677L13.6366 29.8654ZM12.4174 23.9483L15.3007 25.9246L13.3553 28.9622L12.4174 23.9483ZM9.91924 24.9478L11.9131 23.8101L12.8249 28.7028L9.91924 24.9478ZM5.74319 24.6344L9.44673 25.0927L12.6148 29.1883L5.74319 24.6344ZM2.63161 19.6751L8.56851 20.1092L5.88765 23.4602L5.48046 23.9687L2.63161 19.6751ZM2.36976 22.3987C2.31975 22.3654 2.28709 22.3099 2.28327 22.2497L2.11145 19.725L5.07298 24.1901L2.36976 22.3987ZM1.4274 9.67382L4.91146 11.8611L2.06555 19.0535L1.4274 9.67382ZM1.00021 3.39626L4.76082 6.18379L1.3821 9.00695L1.00021 3.39626ZM0.846925 1.14327C0.844572 1.10676 0.846926 1.05214 0.895471 1.00014C0.934307 0.959248 0.991089 0.933544 1.04375 0.933544C1.07612 0.933544 1.1076 0.94289 1.14025 0.961586L2.88199 1.91238L0.958726 2.78547L0.846925 1.14327ZM4.59342 5.48858L1.37915 3.10678L3.22886 2.26757L4.59342 5.48858ZM4.96177 11.3505L1.73456 9.32563L4.90793 6.6751L4.96177 11.3505ZM8.42758 4.94031L5.26863 5.89344L3.79228 2.40953L8.42758 4.94031ZM10.0802 10.1827L5.60374 6.2793L8.57881 5.38226L10.0802 10.1827ZM11.5739 6.65787L10.5415 10.0933L9.03248 5.27038L11.5739 6.65787ZM12.4883 14.6524L10.7978 10.8919L11.7881 7.63349L12.4883 14.6524ZM12.7484 16.8598L14.5398 20.4737L9.5703 19.754L12.7484 16.8598ZM17.0948 20.1068L15.1103 20.474L13.731 17.4782L17.0948 20.1068ZM18.3752 26.035L15.9344 25.6763L17.3478 21.265L18.3752 26.035ZM20.5091 22.33L20.517 25.2455L17.8759 20.6355C17.8759 20.6355 20.3452 22.2754 20.5091 22.33ZM17.9362 21.6915L20.2075 25.6422L18.8589 26.0207L17.9362 21.6915ZM18.6691 26.8453L20.2211 30.1683L17.1592 29.6901L18.6691 26.8453ZM15.9509 26.1487L18.3084 26.496L16.852 29.2423L15.9509 26.1487ZM15.5446 26.4343L16.4701 29.613L13.6463 29.3983L15.5446 26.4343ZM15.2621 20.9577L17 20.6989L15.717 24.6814L15.2621 20.9577ZM14.8237 21.2618L15.3266 25.3819L12.4603 23.4184L14.8237 21.2618ZM11.7204 23.3731L9.76477 24.4892L9.3467 20.6268L11.7204 23.3731ZM9.61384 20.2295L14.4745 20.9338L12.0979 23.1029L9.61384 20.2295ZM9.09162 19.5185L7.33488 16.2961L12.245 16.6451L9.09162 19.5185ZM8.86096 20.507L9.30433 24.6072L5.91472 24.1884L8.86096 20.507ZM6.85061 16.377L8.62647 19.6479L2.84462 19.2267L6.85061 16.377ZM6.64113 15.9455L2.6931 18.7544L5.20626 12.4026L6.64113 15.9455ZM5.4331 11.498L5.3772 6.69146L10.0252 10.7458L5.4331 11.498ZM10.4688 11.4223L12.4489 16.1918L7.36724 15.831L10.4688 11.4223ZM6.983 15.5515L5.52577 11.9546L10.0319 11.2173L6.983 15.5515ZM20.5288 29.6676L19.026 26.4741L20.5191 26.0575L20.5288 29.6676ZM40.7152 0.141949L30.3846 5.81953C30.0869 5.99158 29.8941 6.29858 29.8691 6.63976L29.4593 15.6803C29.4361 16.0019 29.2631 16.2943 28.9915 16.4713L21.665 21.4122C21.4014 21.584 21.079 21.6249 20.7874 21.5358C20.6941 21.506 20.6032 21.4648 20.5194 21.4081L13.5554 16.5169C13.2953 16.3408 13.1294 16.0577 13.1038 15.746L12.6116 6.79457C12.5836 6.45602 12.3903 6.15253 12.094 5.98253L1.56363 0.233376C1.39504 0.136688 1.21704 0.0925827 1.04375 0.0925827C0.475336 0.0925827 -0.0407107 0.566372 0.00253837 1.19994L1.43859 22.3066C1.46036 22.6274 1.631 22.9198 1.9002 23.0982L20.5447 35.4542V35.4544H20.545L20.557 35.4626C20.7324 35.5786 20.9339 35.6367 21.1355 35.6367C21.3385 35.6367 21.5412 35.5777 21.7168 35.4606V35.4436L40.396 22.9691C40.6638 22.7904 40.8329 22.4988 40.8544 22.1793L42.2793 1.10617C42.3349 0.278358 41.4369 -0.275467 40.7152 0.141949Z" fill="#EA5A43"/>
<path fill-rule="evenodd" clip-rule="evenodd" d="M135.888 28.9024H134.561V26.5463C134.561 26.412 134.53 26.3124 134.469 26.2468C134.409 26.1815 134.328 26.1485 134.23 26.1485C134.133 26.1485 134.055 26.1818 133.995 26.2478C133.936 26.3141 133.906 26.4133 133.906 26.5463V29.0393C133.906 29.1809 133.938 29.2832 134 29.3465C134.063 29.4094 134.165 29.4414 134.307 29.4414H135.888C135.995 29.4414 136.076 29.4168 136.132 29.3674C136.188 29.3181 136.216 29.2538 136.216 29.1739C136.216 29.0959 136.188 29.0313 136.131 28.9797C136.075 28.928 135.993 28.9024 135.888 28.9024Z" fill="#6B6B6B"/>
<path fill-rule="evenodd" clip-rule="evenodd" d="M132.097 28.1335C132.006 28.1335 131.939 28.1605 131.898 28.2141C131.857 28.2677 131.822 28.3374 131.795 28.4227C131.728 28.6039 131.631 28.7412 131.5 28.8344C131.37 28.9284 131.211 28.9747 131.023 28.9747C130.85 28.9747 130.698 28.9337 130.569 28.8511C130.44 28.7688 130.34 28.6439 130.269 28.477C130.199 28.3097 130.163 28.1002 130.163 27.849C130.163 27.4718 130.243 27.181 130.403 26.9761C130.562 26.7715 130.776 26.6693 131.045 26.6693C131.214 26.6693 131.356 26.7092 131.472 26.7885C131.587 26.8681 131.687 26.9881 131.772 27.1487C131.824 27.2456 131.87 27.3142 131.912 27.3539C131.954 27.3935 132.017 27.4135 132.101 27.4135C132.176 27.4135 132.24 27.3849 132.293 27.3276C132.346 27.2699 132.372 27.2036 132.372 27.1287C132.372 26.9917 132.318 26.8465 132.209 26.6926C132.1 26.5387 131.944 26.4094 131.739 26.3051C131.535 26.2002 131.302 26.1482 131.041 26.1482C130.826 26.1482 130.624 26.1862 130.435 26.2631C130.245 26.3394 130.08 26.451 129.938 26.5976C129.798 26.7439 129.689 26.9201 129.614 27.1267C129.538 27.3326 129.5 27.5661 129.5 27.8266C129.5 27.9872 129.515 28.1388 129.545 28.2814C129.575 28.4243 129.62 28.5586 129.681 28.6845C129.741 28.8105 129.814 28.9241 129.899 29.0257C129.994 29.1376 130.099 29.2276 130.213 29.2962C130.327 29.3645 130.453 29.4151 130.593 29.4475C130.733 29.4798 130.888 29.4961 131.059 29.4961C131.283 29.4961 131.48 29.4598 131.649 29.3882C131.818 29.3159 131.957 29.2219 132.066 29.1063C132.174 28.9907 132.254 28.8731 132.305 28.7528C132.355 28.6329 132.381 28.5216 132.381 28.4183C132.381 28.3374 132.353 28.2697 132.298 28.2151C132.242 28.1608 132.174 28.1335 132.097 28.1335Z" fill="#6B6B6B"/>
<path fill-rule="evenodd" clip-rule="evenodd" d="M51.7697 28.7678C51.7211 28.8104 51.6641 28.8437 51.5978 28.8674C51.5319 28.8907 51.4679 28.9054 51.4063 28.9114C51.3443 28.9173 51.259 28.9203 51.1504 28.9203H50.6543V26.7228H51.0864C51.2863 26.7228 51.4569 26.7445 51.5978 26.7881C51.7391 26.8315 51.8577 26.9324 51.954 27.0916C52.0499 27.2506 52.0982 27.4898 52.0982 27.8093C52.0982 28.2627 51.9886 28.5822 51.7697 28.7678ZM51.825 26.2657C51.6661 26.2244 51.4759 26.2041 51.254 26.2041H50.4011C50.2599 26.2041 50.1579 26.2354 50.0946 26.2987C50.0313 26.362 50 26.4643 50 26.6059V28.98C50 29.0843 50.009 29.1695 50.0273 29.2348C50.0456 29.3005 50.085 29.3511 50.1453 29.3871C50.2056 29.4234 50.2952 29.4414 50.4141 29.4414H51.2673C51.4156 29.4414 51.5488 29.4317 51.6671 29.4128C51.7854 29.3938 51.896 29.3604 51.9989 29.3135C52.1019 29.2662 52.1965 29.2039 52.2835 29.1256C52.3937 29.0243 52.484 28.909 52.5543 28.7801C52.6249 28.6512 52.6773 28.5066 52.7109 28.346C52.7449 28.1857 52.7619 28.0082 52.7619 27.8139C52.7619 27.2249 52.5933 26.7861 52.2568 26.4976C52.1275 26.3844 51.9836 26.3067 51.825 26.2657Z" fill="#6B6B6B"/>
<path fill-rule="evenodd" clip-rule="evenodd" d="M54.6367 26.1482C54.541 26.1482 54.4631 26.1815 54.4031 26.2475C54.3428 26.3138 54.3125 26.4131 54.3125 26.5457V29.0966C54.3125 29.2289 54.3432 29.3288 54.4041 29.3955C54.4651 29.4624 54.5427 29.4961 54.6367 29.4961C54.7353 29.4961 54.8149 29.4628 54.8759 29.3968C54.9368 29.3305 54.9675 29.2302 54.9675 29.0966V26.5457C54.9675 26.4117 54.9368 26.3118 54.8759 26.2465C54.8149 26.1812 54.7353 26.1482 54.6367 26.1482Z" fill="#6B6B6B"/>
<path fill-rule="evenodd" clip-rule="evenodd" d="M59.3839 27.765C59.3209 27.7487 59.2436 27.7407 59.1523 27.7407H58.4097C58.3201 27.7407 58.2491 27.764 58.1968 27.8113C58.1449 27.8583 58.1185 27.9179 58.1185 27.9902C58.1185 28.0782 58.1499 28.1411 58.2122 28.1778C58.2748 28.2148 58.3671 28.2331 58.4887 28.2331H58.9957V28.7585C58.8591 28.8321 58.7246 28.8891 58.5916 28.9287C58.4584 28.9684 58.3161 28.9884 58.1648 28.9884C57.8533 28.9884 57.6105 28.8861 57.4362 28.6815C57.2623 28.477 57.175 28.1845 57.175 27.8047C57.175 27.6294 57.1977 27.4695 57.2423 27.3256C57.2873 27.181 57.3519 27.0594 57.4362 26.9598C57.5209 26.8605 57.6225 26.7849 57.7417 26.7322C57.8607 26.6802 57.9959 26.6539 58.1472 26.6539C58.2941 26.6539 58.415 26.6759 58.5097 26.7202C58.6046 26.7645 58.6799 26.8188 58.7359 26.8835C58.7915 26.9484 58.8598 27.0441 58.9408 27.171C58.9701 27.2106 59.0064 27.2416 59.05 27.2636C59.093 27.2859 59.1383 27.2966 59.1853 27.2966C59.2706 27.2966 59.3439 27.2676 59.4049 27.2093C59.4658 27.1513 59.4961 27.081 59.4961 26.9984C59.4961 26.9221 59.4698 26.8345 59.4169 26.7356C59.3639 26.6369 59.2856 26.5437 59.181 26.455C59.0767 26.3671 58.9408 26.2938 58.7732 26.2355C58.6056 26.1772 58.413 26.1482 58.1958 26.1482C57.9313 26.1482 57.6948 26.1872 57.4859 26.2641C57.2773 26.3418 57.1004 26.453 56.9545 26.5986C56.8092 26.7445 56.699 26.9221 56.624 27.131C56.549 27.3402 56.5117 27.5704 56.5117 27.8223C56.5117 28.0782 56.5504 28.3104 56.6273 28.5179C56.7046 28.7255 56.8152 28.9021 56.9591 29.048C57.1031 29.1936 57.2773 29.3049 57.4815 29.3815C57.6858 29.4578 57.9123 29.4961 58.1605 29.4961C58.3734 29.4961 58.5706 29.4721 58.7512 29.4235C58.9321 29.3748 59.12 29.2975 59.3156 29.1913C59.3832 29.1549 59.4385 29.1166 59.4818 29.077C59.5251 29.0367 59.5551 28.9924 59.5711 28.9431C59.5874 28.8937 59.5954 28.8278 59.5954 28.7452V28.1248C59.5954 28.0129 59.5761 27.9289 59.5368 27.873C59.4981 27.817 59.4468 27.781 59.3839 27.765Z" fill="#6B6B6B"/>
<path fill-rule="evenodd" clip-rule="evenodd" d="M61.5195 26.1482C61.4239 26.1482 61.3462 26.1815 61.2859 26.2475C61.2256 26.3138 61.1953 26.4131 61.1953 26.5457V29.0966C61.1953 29.2289 61.226 29.3288 61.2869 29.3955C61.3479 29.4624 61.4255 29.4961 61.5195 29.4961C61.6178 29.4961 61.6977 29.4628 61.7587 29.3968C61.8196 29.3305 61.8503 29.2302 61.8503 29.0966V26.5457C61.8503 26.4117 61.8196 26.3118 61.7587 26.2465C61.6977 26.1812 61.6178 26.1482 61.5195 26.1482Z" fill="#6B6B6B"/>
<path fill-rule="evenodd" clip-rule="evenodd" d="M65.6301 26.2035H63.5492C63.442 26.2035 63.36 26.2275 63.3037 26.2761C63.2471 26.3248 63.2188 26.3907 63.2188 26.4747C63.2188 26.556 63.2457 26.6213 63.3 26.6703C63.3543 26.7199 63.4376 26.7442 63.5492 26.7442H64.2632V29.0966C64.2632 29.2302 64.2938 29.3305 64.3548 29.3968C64.4158 29.4628 64.4947 29.4961 64.5917 29.4961C64.6873 29.4961 64.7653 29.4634 64.8256 29.3978C64.8859 29.3325 64.9159 29.2319 64.9159 29.0966V26.7442H65.6301C65.7418 26.7442 65.8254 26.7199 65.8813 26.6703C65.937 26.6213 65.965 26.556 65.965 26.4747C65.965 26.3937 65.9376 26.3284 65.8823 26.2785C65.8274 26.2285 65.7431 26.2035 65.6301 26.2035Z" fill="#6B6B6B"/>
<path fill-rule="evenodd" clip-rule="evenodd" d="M67.788 28.1755L68.2664 26.8392L68.7535 28.1755H67.788ZM68.8394 26.7599C68.7998 26.6556 68.7671 26.572 68.7415 26.5093C68.7158 26.4467 68.6838 26.3881 68.6465 26.3338C68.6089 26.2795 68.5596 26.2348 68.4989 26.1998C68.438 26.1655 68.362 26.1482 68.2707 26.1482C68.1811 26.1482 68.1058 26.1655 68.0448 26.1998C67.9839 26.2348 67.9345 26.2801 67.8972 26.3361C67.8596 26.3917 67.8243 26.462 67.7913 26.5467C67.7583 26.6313 67.73 26.7039 67.7063 26.7645L66.8798 28.8668C66.8461 28.9507 66.8218 29.016 66.8071 29.0633C66.7925 29.1106 66.7852 29.1559 66.7852 29.2002C66.7852 29.2769 66.8165 29.3452 66.8798 29.4055C66.9431 29.4658 67.0157 29.4961 67.098 29.4961C67.1949 29.4961 67.2649 29.4678 67.3075 29.4111C67.3502 29.3545 67.4015 29.2452 67.4618 29.0833L67.6161 28.6682H68.9297L69.0843 29.0743C69.1046 29.1246 69.1293 29.1819 69.1579 29.2479C69.1866 29.3132 69.2132 29.3618 69.2385 29.3935C69.2632 29.4251 69.2942 29.4501 69.3308 29.4684C69.3678 29.4871 69.4118 29.4961 69.4631 29.4961C69.5514 29.4961 69.6267 29.4648 69.6893 29.4025C69.7516 29.3395 69.7829 29.2709 69.7829 29.1959C69.7829 29.124 69.7499 29.008 69.6836 28.8488L68.8394 26.7599Z" fill="#6B6B6B"/>
<path fill-rule="evenodd" clip-rule="evenodd" d="M73.1769 28.9024H71.85V26.5463C71.85 26.412 71.8193 26.3124 71.7583 26.2468C71.6974 26.1815 71.6178 26.1485 71.5191 26.1485C71.4222 26.1485 71.3442 26.1818 71.2846 26.2478C71.225 26.3141 71.1953 26.4133 71.1953 26.5463V29.0393C71.1953 29.1809 71.2266 29.2832 71.2889 29.3465C71.3516 29.4094 71.4538 29.4414 71.5964 29.4414H73.1769C73.2842 29.4414 73.3655 29.4168 73.4215 29.3674C73.4774 29.3181 73.5051 29.2538 73.5051 29.1739C73.5051 29.0959 73.4768 29.0313 73.4205 28.9797C73.3638 28.928 73.2825 28.9024 73.1769 28.9024Z" fill="#6B6B6B"/>
<path fill-rule="evenodd" clip-rule="evenodd" d="M78.7346 28.7678C78.6859 28.8104 78.629 28.8437 78.5627 28.8674C78.4967 28.8907 78.4327 28.9054 78.3711 28.9114C78.3091 28.9173 78.2238 28.9203 78.1152 28.9203H77.6192V26.7228H78.0513C78.2512 26.7228 78.4217 26.7445 78.5627 26.7881C78.7036 26.8315 78.8225 26.9324 78.9188 27.0916C79.0148 27.2506 79.0631 27.4898 79.0631 27.8093C79.0631 28.2627 78.9535 28.5822 78.7346 28.7678ZM78.7899 26.2657C78.631 26.2244 78.4407 26.2041 78.2188 26.2041H77.366C77.2247 26.2041 77.1228 26.2354 77.0595 26.2987C76.9962 26.362 76.9648 26.4643 76.9648 26.6059V28.98C76.9648 29.0843 76.9738 29.1695 76.9922 29.2348C77.0105 29.3005 77.0498 29.3511 77.1101 29.3871C77.1704 29.4234 77.26 29.4414 77.379 29.4414H78.2322C78.3804 29.4414 78.5137 29.4317 78.632 29.4128C78.7502 29.3938 78.8608 29.3604 78.9638 29.3135C79.0667 29.2662 79.1614 29.2039 79.2483 29.1256C79.3586 29.0243 79.4489 28.909 79.5192 28.7801C79.5898 28.6512 79.6421 28.5066 79.6757 28.346C79.7097 28.1857 79.7267 28.0082 79.7267 27.8139C79.7267 27.2249 79.5581 26.7861 79.2217 26.4976C79.0924 26.3844 78.9485 26.3067 78.7899 26.2657Z" fill="#6B6B6B"/>
<path fill-rule="evenodd" clip-rule="evenodd" d="M83.4298 28.9203H81.9043V27.9992H83.2623C83.3636 27.9992 83.4385 27.9762 83.4872 27.9295C83.5355 27.8836 83.5598 27.8233 83.5598 27.7496C83.5598 27.6763 83.5351 27.617 83.4862 27.5721C83.4368 27.5271 83.3622 27.5044 83.2623 27.5044H81.9043V26.7095H83.3792C83.4835 26.7095 83.5611 26.6865 83.6118 26.6399C83.6624 26.5939 83.6877 26.5323 83.6877 26.4556C83.6877 26.3804 83.6624 26.3197 83.6118 26.2734C83.5611 26.2271 83.4835 26.2041 83.3792 26.2041H81.6511C81.5585 26.2041 81.4822 26.2174 81.4229 26.2448C81.3633 26.2721 81.3196 26.3154 81.292 26.375C81.264 26.4347 81.25 26.5116 81.25 26.6059V29.0393C81.25 29.1809 81.281 29.2832 81.3436 29.3465C81.4059 29.4098 81.5085 29.4414 81.6511 29.4414H83.4298C83.5328 29.4414 83.6104 29.4174 83.6624 29.3698C83.7144 29.3218 83.7407 29.2598 83.7407 29.1829C83.7407 29.1036 83.7144 29.0396 83.6624 28.992C83.6104 28.944 83.5328 28.9203 83.4298 28.9203Z" fill="#6B6B6B"/>
<path fill-rule="evenodd" clip-rule="evenodd" d="M87.6191 26.1482C87.5282 26.1482 87.4556 26.1795 87.4023 26.2418C87.3483 26.3048 87.3216 26.3984 87.3216 26.5237V28.4493L86.063 26.5413C86.0277 26.4854 85.9937 26.4317 85.9604 26.3797C85.9274 26.3284 85.8951 26.2865 85.8634 26.2541C85.8318 26.2218 85.7951 26.1962 85.7531 26.1768C85.7112 26.1575 85.6612 26.1482 85.6022 26.1482C85.5273 26.1482 85.4576 26.1689 85.393 26.2108C85.3284 26.2528 85.2817 26.3071 85.2541 26.3734C85.2304 26.4337 85.2188 26.5167 85.2188 26.6229V29.1206C85.2188 29.2429 85.2467 29.3358 85.3024 29.4001C85.3583 29.4641 85.4326 29.4961 85.5253 29.4961C85.6149 29.4961 85.6882 29.4644 85.7455 29.4011C85.8028 29.3378 85.8314 29.2446 85.8314 29.1206V27.2236L87.0591 29.1096C87.0944 29.1613 87.1297 29.2116 87.1651 29.2609C87.2004 29.3102 87.2384 29.3532 87.2797 29.3898C87.3206 29.4271 87.365 29.4538 87.4119 29.4708C87.4589 29.4874 87.5119 29.4961 87.5705 29.4961C87.8057 29.4961 87.9233 29.3542 87.9233 29.07V26.5237C87.9233 26.3984 87.8963 26.3048 87.8417 26.2418C87.7874 26.1795 87.7131 26.1482 87.6191 26.1482Z" fill="#6B6B6B"/>
<path fill-rule="evenodd" clip-rule="evenodd" d="M91.6848 26.2035H89.6039C89.4967 26.2035 89.4147 26.2275 89.3584 26.2761C89.3018 26.3248 89.2734 26.3907 89.2734 26.4747C89.2734 26.556 89.3004 26.6213 89.3551 26.6703C89.4094 26.7199 89.4923 26.7442 89.6039 26.7442H90.3182V29.0966C90.3182 29.2302 90.3485 29.3305 90.4095 29.3968C90.4705 29.4628 90.5498 29.4961 90.6467 29.4961C90.742 29.4961 90.82 29.4634 90.8803 29.3978C90.9406 29.3325 90.9705 29.2319 90.9705 29.0966V26.7442H91.6848C91.7964 26.7442 91.8801 26.7199 91.936 26.6703C91.992 26.6213 92.0197 26.556 92.0197 26.4747C92.0197 26.3937 91.9923 26.3284 91.9374 26.2785C91.8821 26.2285 91.7978 26.2035 91.6848 26.2035Z" fill="#6B6B6B"/>
<path fill-rule="evenodd" clip-rule="evenodd" d="M93.707 26.1482C93.6114 26.1482 93.5334 26.1815 93.4731 26.2475C93.4131 26.3138 93.3828 26.4131 93.3828 26.5457V29.0966C93.3828 29.2289 93.4135 29.3288 93.4744 29.3955C93.5354 29.4624 93.6127 29.4961 93.707 29.4961C93.8053 29.4961 93.8849 29.4628 93.9458 29.3968C94.0071 29.3305 94.0375 29.2302 94.0375 29.0966V26.5457C94.0375 26.4117 94.0071 26.3118 93.9458 26.2465C93.8849 26.1812 93.8053 26.1482 93.707 26.1482Z" fill="#6B6B6B"/>
<path fill-rule="evenodd" clip-rule="evenodd" d="M97.844 27.7757C97.7403 27.702 97.6147 27.6397 97.4672 27.5881C97.3192 27.5365 97.1543 27.4895 96.9721 27.4468C96.8268 27.4099 96.7222 27.3819 96.6592 27.3629C96.5959 27.3436 96.5336 27.3172 96.4717 27.2833C96.41 27.2496 96.3617 27.209 96.3264 27.1617C96.2911 27.115 96.2734 27.059 96.2734 26.9941C96.2734 26.8895 96.3251 26.7999 96.4287 26.7259C96.5323 26.6513 96.6686 26.6143 96.8375 26.6143C97.0201 26.6143 97.152 26.6483 97.2343 26.7169C97.3169 26.7852 97.3872 26.8805 97.4462 27.0031C97.4915 27.0884 97.5338 27.1497 97.5728 27.187C97.6117 27.225 97.6687 27.2436 97.7437 27.2436C97.826 27.2436 97.8946 27.2123 97.9499 27.1497C98.0049 27.0874 98.0322 27.0171 98.0322 26.9388C98.0322 26.8532 98.0105 26.7659 97.9662 26.6759C97.9222 26.5863 97.8523 26.5003 97.757 26.4187C97.6614 26.3371 97.5411 26.2715 97.3965 26.2222C97.2516 26.1728 97.0804 26.1482 96.8818 26.1482C96.6336 26.1482 96.4174 26.1855 96.2338 26.2598C96.0499 26.3341 95.9096 26.4404 95.8127 26.5786C95.7157 26.7172 95.6671 26.8755 95.6671 27.0537C95.6671 27.241 95.7131 27.3969 95.805 27.5228C95.897 27.6487 96.0209 27.7483 96.1775 27.8213C96.3341 27.8939 96.5283 27.9576 96.7605 28.0122C96.9341 28.0519 97.0727 28.0892 97.1763 28.1248C97.2796 28.1601 97.3642 28.2114 97.4295 28.2784C97.4948 28.3454 97.5275 28.4327 97.5275 28.5399C97.5275 28.6755 97.4672 28.7885 97.3459 28.8791C97.2246 28.9694 97.067 29.0147 96.8728 29.0147C96.7319 29.0147 96.6179 28.992 96.5313 28.9474C96.4447 28.9024 96.3774 28.8454 96.3298 28.7761C96.2821 28.7072 96.2375 28.6209 96.1965 28.5179C96.1625 28.431 96.1219 28.3657 96.0739 28.3214C96.0262 28.2771 95.9679 28.2547 95.8986 28.2547C95.8134 28.2547 95.7434 28.2834 95.6881 28.34C95.6331 28.3967 95.6055 28.4646 95.6055 28.5446C95.6055 28.6815 95.6514 28.8224 95.7434 28.9674C95.8353 29.1123 95.9546 29.2282 96.1015 29.3152C96.3088 29.4358 96.5716 29.4961 96.8908 29.4961C97.1566 29.4961 97.3865 29.4521 97.5804 29.3638C97.7747 29.2752 97.9219 29.1533 98.0225 28.997C98.1231 28.8411 98.1734 28.6652 98.1734 28.4693C98.1734 28.3061 98.1445 28.1678 98.0865 28.0552C98.0282 27.9426 97.9476 27.8496 97.844 27.7757Z" fill="#6B6B6B"/>
<path fill-rule="evenodd" clip-rule="evenodd" d="M101.775 26.2035H99.6938C99.5868 26.2035 99.5049 26.2275 99.4482 26.2761C99.3916 26.3248 99.3633 26.3907 99.3633 26.4747C99.3633 26.556 99.3906 26.6213 99.4449 26.6703C99.4992 26.7199 99.5822 26.7442 99.6938 26.7442H100.408V29.0966C100.408 29.2302 100.438 29.3305 100.499 29.3968C100.56 29.4628 100.64 29.4961 100.737 29.4961C100.832 29.4961 100.91 29.4634 100.97 29.3978C101.03 29.3325 101.06 29.2319 101.06 29.0966V26.7442H101.775C101.886 26.7442 101.97 26.7199 102.026 26.6703C102.082 26.6213 102.11 26.556 102.11 26.4747C102.11 26.3937 102.082 26.3284 102.027 26.2785C101.972 26.2285 101.888 26.2035 101.775 26.2035Z" fill="#6B6B6B"/>
<path fill-rule="evenodd" clip-rule="evenodd" d="M105.079 27.5451C104.972 27.5724 104.84 27.5861 104.682 27.5861H104.096V26.6959H104.7C104.925 26.6959 105.076 26.7122 105.152 26.7445C105.233 26.7785 105.296 26.8298 105.341 26.8981C105.387 26.9668 105.41 27.0457 105.41 27.1357C105.41 27.2503 105.381 27.3406 105.325 27.4059C105.268 27.4715 105.186 27.5178 105.079 27.5451ZM105.867 28.6382C105.784 28.5023 105.69 28.3737 105.584 28.2531C105.478 28.1325 105.367 28.0409 105.251 27.9792C105.528 27.9186 105.734 27.8163 105.869 27.6721C106.005 27.5278 106.073 27.3349 106.073 27.0937C106.073 26.9758 106.053 26.8642 106.013 26.7592C105.972 26.6536 105.913 26.5613 105.835 26.482C105.758 26.4021 105.668 26.3414 105.566 26.2984C105.483 26.2605 105.389 26.2348 105.284 26.2222C105.18 26.2098 105.054 26.2038 104.907 26.2038H103.843C103.702 26.2038 103.6 26.2351 103.536 26.2984C103.473 26.3617 103.441 26.464 103.441 26.6056V29.0966C103.441 29.2276 103.47 29.3272 103.528 29.3948C103.585 29.4624 103.666 29.4961 103.77 29.4961C103.867 29.4961 103.945 29.4641 104.006 29.3991C104.066 29.3345 104.096 29.2336 104.096 29.0966V28.0565H104.325C104.442 28.0565 104.538 28.0718 104.614 28.1028C104.69 28.1338 104.766 28.1911 104.84 28.2751C104.914 28.359 104.999 28.4813 105.093 28.6415L105.355 29.079C105.417 29.1819 105.465 29.2599 105.502 29.3132C105.537 29.3662 105.58 29.4098 105.63 29.4445C105.68 29.4791 105.742 29.4961 105.815 29.4961C105.877 29.4961 105.932 29.4841 105.978 29.4598C106.026 29.4358 106.063 29.4025 106.09 29.3605C106.117 29.3185 106.131 29.2762 106.131 29.2336C106.131 29.1923 106.108 29.117 106.061 29.0074C106.015 28.8977 105.95 28.7745 105.867 28.6382Z" fill="#6B6B6B"/>
<path fill-rule="evenodd" clip-rule="evenodd" d="M109.55 26.1482C109.497 26.1482 109.452 26.1575 109.415 26.1768C109.378 26.1962 109.345 26.2238 109.315 26.2598C109.285 26.2958 109.257 26.3344 109.233 26.3757C109.208 26.4171 109.177 26.4677 109.14 26.528L108.529 27.5108L107.925 26.528C107.833 26.3764 107.763 26.2751 107.717 26.2245C107.671 26.1735 107.603 26.1482 107.513 26.1482C107.428 26.1482 107.356 26.1755 107.298 26.2298C107.24 26.2841 107.211 26.3494 107.211 26.424C107.211 26.47 107.225 26.5237 107.254 26.5853C107.283 26.6473 107.332 26.7336 107.401 26.8438L108.19 28.0695V29.0966C108.19 29.2319 108.22 29.3325 108.28 29.3978C108.34 29.4634 108.419 29.4961 108.516 29.4961C108.612 29.4961 108.69 29.4628 108.752 29.3968C108.813 29.3305 108.844 29.2302 108.844 29.0966V28.0695L109.654 26.8262C109.721 26.7242 109.769 26.6449 109.797 26.5876C109.825 26.53 109.839 26.473 109.839 26.4154C109.839 26.3448 109.811 26.2825 109.756 26.2285C109.701 26.1748 109.632 26.1482 109.55 26.1482Z" fill="#6B6B6B"/>
<path fill-rule="evenodd" clip-rule="evenodd" d="M114.67 28.9487H113.967V28.0035H114.648C114.876 28.0035 115.047 28.0401 115.162 28.1138C115.276 28.1874 115.333 28.306 115.333 28.4696C115.333 28.7891 115.113 28.9487 114.67 28.9487ZM113.967 26.6959H114.498C114.736 26.6959 114.913 26.7228 115.029 26.7765C115.146 26.8305 115.204 26.9391 115.204 27.1023C115.204 27.1789 115.185 27.2482 115.149 27.3099C115.101 27.3968 115.034 27.4558 114.944 27.4864C114.856 27.5174 114.73 27.5331 114.567 27.5331H113.967V26.6959ZM115.36 27.7273C115.683 27.5774 115.845 27.3402 115.845 27.016C115.845 26.9221 115.83 26.8325 115.799 26.7482C115.768 26.6635 115.723 26.5859 115.664 26.516C115.606 26.446 115.538 26.388 115.461 26.3427C115.372 26.2884 115.27 26.2514 115.157 26.2324C115.044 26.2131 114.911 26.2038 114.756 26.2038H113.709C113.569 26.2038 113.469 26.2348 113.406 26.2974C113.344 26.3597 113.312 26.4626 113.312 26.6056V29.039C113.312 29.1789 113.343 29.2808 113.404 29.3448C113.465 29.4091 113.566 29.4414 113.709 29.4414H114.696C114.867 29.4414 115.016 29.4327 115.144 29.4154C115.272 29.3991 115.385 29.3698 115.483 29.3285C115.641 29.2595 115.766 29.1522 115.858 29.0073C115.951 28.862 115.997 28.6991 115.997 28.5179C115.997 28.1264 115.785 27.8629 115.36 27.7273Z" fill="#6B6B6B"/>
<path fill-rule="evenodd" clip-rule="evenodd" d="M119.593 26.1482C119.54 26.1482 119.495 26.1575 119.458 26.1768C119.421 26.1962 119.388 26.2238 119.358 26.2598C119.328 26.2958 119.3 26.3344 119.275 26.3757C119.251 26.4171 119.22 26.4677 119.183 26.528L118.572 27.5108L117.968 26.528C117.876 26.3764 117.806 26.2751 117.76 26.2245C117.714 26.1735 117.645 26.1482 117.556 26.1482C117.471 26.1482 117.399 26.1755 117.341 26.2298C117.283 26.2841 117.254 26.3494 117.254 26.424C117.254 26.47 117.268 26.5237 117.297 26.5853C117.326 26.6473 117.375 26.7336 117.443 26.8438L118.233 28.0695V29.0966C118.233 29.2319 118.263 29.3325 118.323 29.3978C118.383 29.4634 118.462 29.4961 118.559 29.4961C118.654 29.4961 118.733 29.4628 118.795 29.3968C118.856 29.3305 118.887 29.2302 118.887 29.0966V28.0695L119.697 26.8262C119.764 26.7242 119.812 26.6449 119.84 26.5876C119.868 26.53 119.882 26.473 119.882 26.4154C119.882 26.3448 119.854 26.2825 119.799 26.2285C119.744 26.1748 119.675 26.1482 119.593 26.1482Z" fill="#6B6B6B"/>
<path fill-rule="evenodd" clip-rule="evenodd" d="M124.128 28.1755L124.606 26.8392L125.093 28.1755H124.128ZM125.179 26.7599C125.14 26.6556 125.107 26.572 125.081 26.5093C125.055 26.4467 125.024 26.3881 124.986 26.3338C124.949 26.2795 124.899 26.2348 124.839 26.1998C124.778 26.1655 124.702 26.1482 124.611 26.1482C124.521 26.1482 124.446 26.1655 124.385 26.1998C124.324 26.2348 124.274 26.2801 124.237 26.3361C124.199 26.3917 124.164 26.462 124.131 26.5467C124.098 26.6313 124.07 26.7039 124.047 26.7645L123.22 28.8668C123.186 28.9507 123.162 29.016 123.147 29.0633C123.132 29.1106 123.125 29.1559 123.125 29.2002C123.125 29.2769 123.157 29.3452 123.22 29.4055C123.283 29.4658 123.356 29.4961 123.438 29.4961C123.535 29.4961 123.605 29.4678 123.647 29.4111C123.69 29.3545 123.741 29.2452 123.802 29.0833L123.956 28.6682H125.27L125.424 29.0743C125.444 29.1246 125.469 29.1819 125.498 29.2479C125.526 29.3132 125.553 29.3618 125.578 29.3935C125.603 29.4251 125.634 29.4501 125.671 29.4684C125.708 29.4871 125.752 29.4961 125.803 29.4961C125.891 29.4961 125.967 29.4648 126.029 29.4025C126.092 29.3395 126.123 29.2709 126.123 29.1959C126.123 29.124 126.09 29.008 126.023 28.8488L125.179 26.7599Z" fill="#6B6B6B"/>
<path fill-rule="evenodd" clip-rule="evenodd" d="M137.941 26.1482C137.846 26.1482 137.768 26.1815 137.708 26.2475C137.648 26.3138 137.617 26.4131 137.617 26.5457V29.0966C137.617 29.2289 137.648 29.3288 137.709 29.3955C137.77 29.4624 137.847 29.4961 137.941 29.4961C138.04 29.4961 138.12 29.4628 138.181 29.3968C138.242 29.3305 138.272 29.2302 138.272 29.0966V26.5457C138.272 26.4117 138.242 26.3118 138.181 26.2465C138.12 26.1812 138.04 26.1482 137.941 26.1482Z" fill="#6B6B6B"/>
<path fill-rule="evenodd" clip-rule="evenodd" d="M142.421 28.1335C142.33 28.1335 142.263 28.1605 142.222 28.2141C142.181 28.2677 142.147 28.3374 142.119 28.4227C142.053 28.6039 141.955 28.7412 141.824 28.8344C141.694 28.9284 141.535 28.9747 141.347 28.9747C141.174 28.9747 141.023 28.9337 140.893 28.8511C140.764 28.7688 140.664 28.6439 140.593 28.477C140.523 28.3097 140.488 28.1002 140.488 27.849C140.488 27.4718 140.567 27.181 140.727 26.9761C140.886 26.7715 141.101 26.6693 141.369 26.6693C141.538 26.6693 141.68 26.7092 141.796 26.7885C141.911 26.8681 142.011 26.9881 142.097 27.1487C142.148 27.2456 142.195 27.3142 142.237 27.3539C142.279 27.3935 142.342 27.4135 142.425 27.4135C142.5 27.4135 142.564 27.3849 142.617 27.3276C142.67 27.2699 142.696 27.2036 142.696 27.1287C142.696 26.9917 142.642 26.8465 142.533 26.6926C142.425 26.5387 142.268 26.4094 142.064 26.3051C141.859 26.2002 141.626 26.1482 141.365 26.1482C141.151 26.1482 140.948 26.1862 140.759 26.2631C140.569 26.3394 140.404 26.451 140.263 26.5976C140.122 26.7439 140.013 26.9201 139.938 27.1267C139.862 27.3326 139.824 27.5661 139.824 27.8266C139.824 27.9872 139.839 28.1388 139.87 28.2814C139.9 28.4243 139.944 28.5586 140.005 28.6845C140.065 28.8105 140.138 28.9241 140.223 29.0257C140.319 29.1376 140.423 29.2276 140.538 29.2962C140.651 29.3645 140.778 29.4151 140.917 29.4475C141.057 29.4798 141.212 29.4961 141.383 29.4961C141.608 29.4961 141.804 29.4598 141.973 29.3882C142.142 29.3159 142.281 29.2219 142.39 29.1063C142.498 28.9907 142.578 28.8731 142.629 28.7528C142.68 28.6329 142.705 28.5216 142.705 28.4183C142.705 28.3374 142.677 28.2697 142.621 28.2151C142.566 28.1608 142.498 28.1335 142.421 28.1335Z" fill="#6B6B6B"/>
<path fill-rule="evenodd" clip-rule="evenodd" d="M146.805 28.7895L145.888 27.4735L146.684 26.7179C146.783 26.6236 146.832 26.529 146.832 26.433C146.832 26.3534 146.803 26.2861 146.744 26.2308C146.687 26.1758 146.611 26.1482 146.517 26.1482C146.445 26.1482 146.387 26.1635 146.343 26.1945C146.3 26.2255 146.248 26.2735 146.186 26.3384L144.901 27.6811V26.546C144.901 26.4117 144.87 26.3118 144.809 26.2465C144.748 26.1812 144.669 26.1482 144.57 26.1482C144.47 26.1482 144.391 26.1815 144.333 26.2475C144.275 26.3138 144.246 26.4131 144.246 26.546V28.9527C144.246 29.056 144.248 29.1346 144.253 29.1893C144.257 29.2436 144.27 29.2915 144.29 29.3328C144.318 29.3828 144.358 29.4225 144.409 29.4521C144.461 29.4814 144.514 29.4961 144.57 29.4961C144.667 29.4961 144.746 29.4634 144.808 29.3978C144.87 29.3325 144.901 29.2319 144.901 29.0966V28.4273L145.436 27.9126L146.21 29.1053C146.241 29.1583 146.276 29.2172 146.316 29.2822C146.356 29.3468 146.404 29.3988 146.462 29.4375C146.519 29.4768 146.593 29.4961 146.684 29.4961C146.781 29.4961 146.858 29.4698 146.914 29.4168C146.971 29.3638 146.999 29.3012 146.999 29.2289C146.999 29.1643 146.983 29.0976 146.951 29.0293C146.919 28.9607 146.87 28.8808 146.805 28.7895Z" fill="#6B6B6B"/>
<path fill-rule="evenodd" clip-rule="evenodd" d="M53.6192 11.8015L51.6576 7.02306C51.4683 6.58263 50.9599 6.3794 50.5218 6.56997C50.0834 6.7602 49.8818 7.27193 50.0711 7.71303L51.9837 12.3656C52.1383 12.8197 52.6294 13.0615 53.0815 12.906C53.5329 12.7504 53.7735 12.2556 53.6192 11.8015Z" fill="#6B6B6B"/>
<path fill-rule="evenodd" clip-rule="evenodd" d="M114.426 18.2886H109.302V7.37003C109.302 6.88962 108.916 6.50049 108.438 6.50049C107.961 6.50049 107.574 6.88962 107.574 7.37003V19.1578C107.574 19.6382 107.961 20.0273 108.438 20.0273H114.426C114.903 20.0273 115.29 19.6382 115.29 19.1578C115.29 18.6777 114.903 18.2886 114.426 18.2886Z" fill="#6B6B6B"/>
<path fill-rule="evenodd" clip-rule="evenodd" d="M102.227 8.23957C102.704 8.23957 103.091 7.85011 103.091 7.37003C103.091 6.88961 102.704 6.50049 102.227 6.50049H96.2389C95.7621 6.50049 95.375 6.88961 95.375 7.37003V19.1578C95.375 19.6382 95.7621 20.0273 96.2389 20.0273H102.227C102.704 20.0273 103.091 19.6382 103.091 19.1578C103.091 18.6777 102.704 18.2886 102.227 18.2886H97.1034V14.1085H101.424C101.901 14.1085 102.288 13.719 102.288 13.2389C102.288 12.7585 101.901 12.3694 101.424 12.3694H97.1034V8.23957H102.227Z" fill="#6B6B6B"/>
<path fill-rule="evenodd" clip-rule="evenodd" d="M87.1012 13.2458L90.555 7.83934C90.8132 7.43589 90.6966 6.89751 90.2951 6.63798C89.8937 6.37812 89.3593 6.49505 89.1011 6.89917C89.1011 6.89917 87.6682 9.14232 86.0531 11.6703L86.0404 11.653L86.0357 11.661C84.4226 9.13666 82.9937 6.89917 82.9937 6.89917C82.7351 6.49505 82.2008 6.37812 81.7993 6.63798C81.3978 6.89751 81.2816 7.43589 81.5398 7.83934L85.0086 13.2701L81.5534 18.6853C81.2952 19.0897 81.4115 19.6285 81.813 19.8886C82.2147 20.1492 82.7491 20.0319 83.008 19.6271C83.008 19.6271 84.4446 17.3756 86.0627 14.8396C87.6809 17.3756 89.1178 19.6271 89.1178 19.6271C89.376 20.0319 89.9107 20.1492 90.3125 19.8886C90.7139 19.6285 90.8302 19.0897 90.5723 18.6853L87.1012 13.2458Z" fill="#6B6B6B"/>
<path fill-rule="evenodd" clip-rule="evenodd" d="M61.3926 6.57178C60.9542 6.38122 60.4458 6.58444 60.2566 7.02488L55.9575 17.0376C55.9575 17.0376 55.4065 15.7543 54.6992 14.1068L54.7052 14.1045C54.5149 13.6687 54.0039 13.4678 53.5634 13.6564C53.158 13.8296 52.9581 14.2717 53.077 14.6812L53.065 14.6855C54.1588 17.2332 55.1333 19.5026 55.1333 19.5026C55.2702 19.8215 55.5817 20.0273 55.9265 20.0273H55.9885C56.333 20.0273 56.6451 19.8215 56.7817 19.5026L61.8434 7.71484C62.0323 7.27374 61.8307 6.76201 61.3926 6.57178Z" fill="#6B6B6B"/>
<path fill-rule="evenodd" clip-rule="evenodd" d="M71.8823 18.2886C69.1287 18.2886 66.8886 16.0341 66.8886 13.2639C66.8886 10.4937 69.1287 8.23957 71.8823 8.23957C74.6358 8.23957 76.876 10.4937 76.876 13.2639C76.876 16.0341 74.6358 18.2886 71.8823 18.2886ZM71.8823 6.50049C68.1756 6.50049 65.1602 9.53455 65.1602 13.2639C65.1602 16.9933 68.1756 20.0273 71.8823 20.0273C75.589 20.0273 78.6044 16.9933 78.6044 13.2639C78.6044 9.53455 75.589 6.50049 71.8823 6.50049Z" fill="#6B6B6B"/>
<path d="M146.726 19.1548V19.1205C146.708 18.1793 146.692 16.965 146.692 15.7846C146.692 14.347 146.708 12.3937 146.726 11.6927V11.6581C146.726 11.1107 146.264 10.8369 145.819 10.8369C145.306 10.8369 144.878 11.145 144.895 11.7094C144.912 12.1715 144.912 12.2538 144.912 13.024C144.912 14.5809 144.895 17.7346 144.895 19.1548C144.895 19.7365 145.34 20.0273 145.802 20.0273C146.264 20.0273 146.726 19.7365 146.726 19.1548Z" fill="#6B6B6B"/>
<path d="M145.803 8.87891C146.538 8.87891 147.001 8.27989 147.001 7.66421C147.001 7.01389 146.419 6.5005 145.803 6.5005C145.324 6.5005 144.605 6.82599 144.605 7.66421C144.605 8.45113 145.136 8.87891 145.803 8.87891Z" fill="#6B6B6B"/>
<path d="M125.704 12.4207C126.648 11.8903 127.232 10.9028 127.232 9.76743C127.232 7.8581 125.783 6.52481 123.708 6.52481C121.446 6.52481 120.202 8.07799 120.202 8.59238C120.202 8.9945 120.569 9.36098 120.972 9.36098C121.227 9.36098 121.424 9.25636 121.558 9.0558C122.082 8.31553 122.8 7.94006 123.691 7.94006C125.596 7.94006 125.693 9.44726 125.693 9.74977C125.693 10.9381 124.921 11.7577 123.779 11.7877H123.146C122.742 11.7877 122.448 12.0962 122.448 12.522C122.448 12.8844 122.678 13.2739 123.182 13.2739H123.638C125.345 13.2739 126.325 14.2151 126.325 15.8552C126.325 17.3764 125.147 18.5241 123.586 18.5241C122.323 18.5241 121.466 18.074 120.813 17.0732C120.681 16.8507 120.444 16.7178 120.182 16.7178C119.794 16.7178 119.379 17.0406 119.379 17.5217C119.379 18.1054 120.663 20.0273 123.498 20.0273C126.058 20.0273 127.915 18.2799 127.915 15.8725C127.915 14.2457 127.099 12.9924 125.704 12.4207Z" fill="#E5573F"/>
<path d="M141.47 13.2293C141.47 9.60351 139.256 6.79666 135.23 6.53547C134.968 6.51781 134.445 6.50049 133.905 6.50049C131.743 6.50049 130.017 6.57045 129.878 8.95852C129.826 9.89969 129.773 11.9216 129.773 13.8393C129.773 15.3035 129.808 16.7154 129.86 17.5693C130.035 20.01 132.51 20.0273 133.905 20.0273C135.717 20.0273 141.47 20.01 141.47 13.2293ZM135.055 8.40048C137.722 8.40048 139.413 10.4227 139.413 13.2293C139.413 18.1623 135.735 18.1623 133.905 18.1623C132.458 18.1623 131.918 18.0227 131.83 17.2208C131.761 16.5585 131.726 15.2685 131.726 13.8913C131.726 12.0089 131.778 10.0043 131.83 9.27236C131.883 8.40048 132.824 8.38316 133.66 8.38316C134.305 8.38316 135.055 8.40048 135.055 8.40048Z" fill="#E5573F"/>
<path fill-rule="evenodd" clip-rule="evenodd" d="M22.3544 2.71365L28.7297 6.20018C29.3725 6.55158 29.3661 7.12118 28.7161 7.47258L22.2641 10.9591C21.6139 11.3105 20.5662 11.3105 19.9236 10.9591L13.5481 7.47258C12.9055 7.12118 12.912 6.55158 13.5622 6.20018L20.0137 2.71365C20.6639 2.36225 21.7119 2.36225 22.3544 2.71365Z" fill="#EA5A43"/>
</g>
<defs>
<clipPath id="clip0_6258_26584">
<rect width="147" height="36" fill="white"/>
</clipPath>
</defs>
</svg>
