<svg width="24" height="24" viewBox="0 0 24 24" fill="none" xmlns="http://www.w3.org/2000/svg">
<rect width="24" height="24" rx="7" fill="#E9E9E9"/>
<path fill-rule="evenodd" clip-rule="evenodd" d="M18.4333 8.66467C18.3555 8.38314 18.2068 8.1263 18.0013 7.91875C17.797 7.71208 17.5427 7.56191 17.2631 7.48291C16.2157 7.19923 12.0008 7.19923 12.0008 7.19923C12.0008 7.19923 7.79794 7.19203 6.74003 7.48339C6.4604 7.56239 6.20603 7.71256 6.00179 7.91923C5.79629 8.12678 5.64754 8.38363 5.56979 8.66515C5.37124 9.74883 5.27338 10.8486 5.27747 11.9503C5.27448 13.0474 5.37264 14.1428 5.5707 15.2222C5.64842 15.5038 5.79719 15.7607 6.00275 15.9684C6.20699 16.175 6.46136 16.3252 6.74099 16.4042C7.7869 16.6884 12.0032 16.6884 12.0032 16.6884C12.0032 16.6884 16.2066 16.6884 17.2655 16.4042C17.5451 16.3252 17.7994 16.175 18.0037 15.9684C18.2092 15.7608 18.3579 15.504 18.4357 15.2224C18.6293 14.1425 18.7229 13.047 18.7155 11.9498C18.7229 10.8485 18.6285 9.74881 18.4333 8.66481L18.4333 8.66467ZM10.657 13.9816V9.91118L14.1648 11.9497L10.657 13.9816Z" fill="#6B6B6B"/>
</svg>
